<svg width="359" height="359" viewBox="0 0 365 365" fill="none" xmlns="http://www.w3.org/2000/svg">
  <defs>
    <linearGradient id="strongGradient" x1="0%" y1="0%" x2="100%" y2="100%">
      <stop offset="25%" stop-color="#ED765E"/>
      <stop offset="70%" stop-color="#FEA858"/>
    </linearGradient>
    <filter id="deepEmboss" x="-30%" y="-30%" width="160%" height="160%">
      <feDropShadow dx="1" dy="1" stdDeviation="0.5" flood-color="#000000" flood-opacity="0.8"></feDropShadow>
    </filter>
  </defs>

  <circle cx="179.5" cy="179.5" r="159.5" stroke="#de6952" stroke-width="40" filter="url(#deepEmboss)"></circle>
<path xmlns="http://www.w3.org/2000/svg" d="M176.746 13C267.733 13 341.493 86.7593 341.493 177.746C341.493 268.733 267.733 342.493 176.746 342.493C85.7593 342.493 12 268.733 12 177.746C12.0003 86.7595 85.7595 13.0003 176.746 13ZM176.746 52.3428C139.369 52.3429 105.811 68.6952 82.8369 94.6357H120.804C125.129 94.6357 130.406 94.6007 134.808 95.0771C138.971 95.5278 147.818 96.8598 155.152 104.004C162.617 111.276 164.083 120.216 164.573 124.513C165.077 128.93 165.039 134.196 165.039 138.364C165.039 154.595 165.713 241.621 165.301 302.635C169.071 302.975 172.888 303.15 176.746 303.15C179.268 303.15 181.773 303.074 184.259 302.927C183.843 241.9 184.52 154.621 184.52 138.364C184.52 134.196 184.483 128.93 184.986 124.513C185.476 120.216 186.942 111.276 194.406 104.004C201.739 96.86 210.586 95.528 214.751 95.0771C219.152 94.6007 224.429 94.6357 228.755 94.6357H270.656C247.682 68.695 214.123 52.3428 176.746 52.3428ZM233.437 170.059C233.321 198.428 233.238 260.145 233.363 289.669C243 283.5 260 275 272.697 258.197L233.437 170.059ZM59.2441 136.437H62.5225V143.813H55.9893C52.9628 154.606 51.3428 165.987 51.3428 177.746C51.3428 225.046 77.5316 266.23 116.199 287.59C116.41 233.82 115.956 167.051 115.873 143.813H108.041V136.437H111.319V133.979H94.5488V140.194H94.4883C94.244 139.736 93.891 139.172 93.4297 138.504L90.3555 133.979H85.2168L83.6895 137.578C83.5402 137.932 83.3915 138.333 83.2422 138.778H83.2002C83.0646 138.372 82.9158 137.984 82.7529 137.617L81.2051 133.979H76.1318V140.194H76.0713C75.827 139.736 75.4733 139.173 75.0117 138.504L71.9375 133.979H59.2441V136.437ZM261.229 134V142.172C260.878 141.832 260.449 141.66 259.94 141.66C259.38 141.66 258.913 141.847 258.54 142.221C258.18 142.581 258 143.027 258 143.561C258 143.647 258.004 143.732 258.011 143.813H246.192L291.472 228.458C298.335 212.952 302.15 195.794 302.15 177.746C302.15 165.987 299.5 153.5 293.697 143.813H281.137V136.5H284.356V134H268.729V140.32H268.67C268.43 139.854 268.083 139.281 267.63 138.601L264.61 134H261.229ZM277.536 136.5V143.813H276.01V142.96H271.33V140.641H275.29V138.48H271.33V136.5H277.536ZM264.649 139.24L265.55 140.601L267.625 143.813H264.57V140.801L264.59 139.24H264.649ZM68.2139 143.813H66.1865V136.437H68.2139V143.813ZM72.8955 140.471L75.1299 143.813H71.8975V140.667L71.917 139.132H71.9785L72.8955 140.471ZM81.3887 141.65V143.813H79.5117V137.967L81.3887 141.65ZM86.9141 143.813H85.0537V141.611L86.9141 137.939V143.813ZM91.3125 140.471L93.5469 143.813H90.3145V140.667L90.334 139.132H90.3955L91.3125 140.471ZM104.376 143.813H102.822V142.791H98.0566V140.51H102.09V138.385H98.0566V136.437H104.376V143.813ZM70 129C68.8954 129 68 129.895 68 131C68 132.105 68.8954 133 70 133C71.1046 133 72 132.105 72 131C72 129.895 71.1046 129 70 129Z" fill="url(#strongGradient)" filter="url(#deepEmboss)"/>
</svg>
